<?xml version="1.0" encoding="utf-8"?>
<!-- Generator: Adobe Illustrator 26.0.0, SVG Export Plug-In . SVG Version: 6.00 Build 0)  -->
<svg version="1.1" id="Camada_1" xmlns="http://www.w3.org/2000/svg" xmlns:xlink="http://www.w3.org/1999/xlink" x="0px" y="0px"
	 viewBox="0 0 543 543" style="enable-background:new 0 0 543 543;" xml:space="preserve">
<style type="text/css">
	.st0{fill:#FFFFFF;}
</style>
<g>
	<path class="st0" d="M332.2,241c-3-7.2-7.2-13.5-12.6-18.8c-17.3-17-40-17-48.6-17c-8.5,0-31,0.1-48.3,16.9
		c-5.5,5.3-9.8,11.7-12.9,18.9l-0.1-0.1c-4.6,6.1-7.8,12.8-9.7,19.9c-6.1,23.5,5.3,43.2,9.6,50.6c4.2,7.3,15.5,26.8,38.8,33.3
		c5.1,1.4,10.3,2.1,15.6,2.1c3.3,0,6.7-0.3,10.1-0.9c2.3,0.3,4.7,0.5,7,0.5c4.1,0,8.1-0.5,12.1-1.4c23.2-5.6,34.5-25.3,39.3-33.7
		c4.2-7.4,15.4-26.9,9.5-50.2C340.1,254,336.8,247.2,332.2,241z M223.3,250.7c2.3-6.7,5.9-12.5,10.6-17.2
		c12.7-12.3,29.8-12.4,37.1-12.4h0c7.4,0,24.8-0.1,37.3,12.4c4.7,4.7,8.3,10.5,10.4,17.3c0.4,2,0.3,3.6-0.2,4.5
		c-2.6,4.4-18.2,4.7-31.6,0.6c-4.1-1.3-8-3-11.7-5.2l-2-1.1H269l-1.9,1.1c-3.7,2.2-7.6,3.9-11.7,5.2c-13.6,4.2-28.9,3.9-31.6-0.7
		C223.2,254.3,223,252.7,223.3,250.7z M271.1,287c-2.6-2.3-5.4-4.4-8.3-6.3c-0.2-3.4-0.6-6.7-1.3-10c3.3-1.1,6.5-2.4,9.6-4
		c3,1.5,6.1,2.8,9.3,3.9c-0.7,3.4-1.2,6.9-1.3,10.4C276.4,282.7,273.7,284.8,271.1,287z M252.8,329.4c-17-4.8-25.6-19.6-29.3-26
		c-3.4-5.9-11.1-19.2-8.7-34.7c7.9,6.1,20.2,6.8,31.1,5.4c0.7,3.6,1,7.3,1,10.9l0,2.3l2.2,3.8l1.9,1.1c3.7,2.1,7.2,4.6,10.4,7.5
		c10.4,9.7,17.8,23.1,15.3,27.7c-0.5,0.9-1.8,1.8-3.7,2.6C266.1,331.4,259.3,331.2,252.8,329.4z M318.6,303.5
		c-3.8,6.6-11.4,20-25.7,25c1.5-9.9-4.2-21-10.9-29.8c2.8-2.4,5.8-4.5,9-6.3l2-1.1l2.2-3.8l0-2.2c-0.1-3.8,0.3-7.5,1-11.2
		c3.2,0.4,6.5,0.7,9.8,0.7c7.9,0,15.6-1.5,21.2-5.6C329.4,284.5,321.9,297.7,318.6,303.5z"/>
	<path class="st0" d="M530.6,293.1c-3.8-12.4-9.4-24.1-16.6-34.9c3.5-10.4,6.1-21.3,7.7-32.5l-1.4-5.8c-12.4-17.1-31-38-56.5-55.7
		c0.7-21.4-2.8-42.2-10.4-61.8c-4.4-11.5-10.3-22.5-17.4-32.7l-1.3-1.9l-2.1-0.9c-14-5.9-28.7-10-43.7-12.2
		c-12.8-1.9-25.9-2.3-38.8-1.3c-19.8-19.5-42.1-27.9-57.5-31.5l-1.8-0.4l-1.8,0.4c-7.9,1.7-15.3,4.7-22.1,8.8
		c-12-4.4-24.5-7.6-37.2-9.4c-14.1-2-28.4-2.3-42.6-0.9l-3.4,1.1c-10.4,6.4-19.9,14.1-28.2,23c-8.8,9.5-16.2,20.2-21.9,31.8
		c-10.8,2.1-21.5,5.3-32,9.6L97,89.8c-8.6,19.3-17.5,45.8-20,76.8c-18.9,10.1-35.1,23.6-48.3,39.9C21,216.2,14.4,226.8,9.1,238
		l-1,2.1l0.3,2.3c1.9,15.1,5.7,29.9,11.3,43.9c4.8,12.1,11,23.6,18.3,34.3c-7,26.9-3.1,50.4,1.5,65.6l0.5,1.7l1.2,1.3
		c5.4,5.9,11.8,10.9,18.7,14.8c2.2,12.6,5.7,25,10.4,36.9c5.3,13.2,12.2,25.8,20.5,37.3l2.7,2.4c10.7,5.9,22.2,10.2,34.1,12.9
		c9.7,2.2,19.6,3.3,29.6,3.3c3,0,6-0.1,9-0.3c7.3,8.3,15.4,15.9,24.3,22.9l5.8,1.7c21-2.2,48.4-7.8,76.5-21.1
		c18.2,11.3,38,18.6,58.8,21.9c7.9,1.2,15.9,1.9,24,1.9c4.4,0,8.7-0.2,13.1-0.5l2.3-0.2l1.8-1.4c12.1-9.2,23-19.8,32.4-31.7
		c8-10.2,14.9-21.3,20.6-33c26.8-7.4,45.2-22.4,56.1-34l1.2-1.3l0.5-1.7c2.4-7.7,3.6-15.6,3.5-23.5c9.9-8.2,18.8-17.4,26.7-27.5
		c8.8-11.2,16.2-23.5,22.1-36.4l0.7-3.5C536.1,316.8,534.1,304.7,530.6,293.1z M424,80.6c5.8,8.6,10.6,17.9,14.3,27.5
		c5.7,14.7,8.8,30.1,9.3,46c-9-5.1-18.7-9.8-29.2-13.7c-9.5-3.6-20.5-7.7-32.9-10.3c-1.2-13.2-5.7-37.8-22.5-61.3
		c7.8,0,15.6,0.5,23.3,1.7C399.3,72.3,411.9,75.7,424,80.6z M110.4,99.3c17-6.5,34.6-10,52.2-10.4c20.9-0.5,55.8-1.3,75.2,21.8
		c2,2.4,3.8,5,5.4,7.8c-8.7-5-18.3-8.3-28.4-9.5c-19-2.2-37.8,3.3-51.5,14.9c-12.3,10.5-20.4,25.5-22.7,42.4
		c-2.3,17,1.5,34.4,10.8,49.1l13.5-8.6c-14.6-23.1-10.8-54.1,8.8-70.7c10.4-8.8,24.8-12.9,39.4-11.2c15.9,1.8,29.8,9.9,39.4,22.8
		l14.4-5.6c-1.7-16.5-7.3-30.5-16.7-41.7c-24.3-29-65.6-28.1-87.8-27.5c-3,0.1-6,0.2-9,0.5c4-6.5,8.6-12.6,13.8-18.2
		c6.9-7.4,14.7-13.9,23.3-19.3c12.3-1.1,24.7-0.7,37,1c8.3,1.2,16.4,3,24.4,5.4c-4.1,4.3-7.8,9.1-10.8,14.3l-4.3,7.4l7.7,3.8
		c6.4,3.1,12.4,7,17.7,11.5c18.4,15.6,26.1,35.8,29.4,50l15.6-3.6c-3.8-16.6-12.9-40.3-34.7-58.7c-4.1-3.4-8.4-6.6-13-9.3
		c2.2-2.8,4.6-5.3,7.3-7.6c8.3-7.2,17.3-10.7,23.8-12.4c14,3.5,33.5,11.5,50.5,29.3c20.2,21.2,26.4,46.1,28.2,60.6
		c-11.8-0.9-24.5-0.1-38.2,3.9c-18.1,5.2-35,15.3-49.1,29.2c-19.3-1.6-45.7,0.2-71.1,15.4c-26.8,16.1-45.6,41.6-53.2,71.9
		c-4.9,19.6-4.6,39.7,0.5,58.6c-12.1-4.8-22.9-11.7-31.9-20.3C103,264.1,98.3,235.8,94.9,215C87.1,168,98.6,126.6,110.4,99.3z
		 M322.9,362.7c-23.1,13.9-50.2,17.9-76.3,11.4c-26.1-6.5-48.2-22.8-62-45.9s-17.9-50.2-11.4-76.3s22.8-48.2,45.9-62
		c17.6-10.6,36.1-13.6,51.4-13.6c20,0,34.6,5.1,34.8,5.2c5.6,2,34.5,13.6,52.1,42.9C386,272,370.5,334.1,322.9,362.7z M24.5,242.8
		c4.6-9.3,10.2-18.1,16.6-26.1c9.9-12.3,21.7-22.7,35.2-31.1c0.1,10.4,0.9,21.1,2.8,32.2c1.7,10,3.6,21.6,7.5,33.6
		c-10.8,7.6-29.9,23.9-41.8,50.1c-3.9-6.8-7.3-13.8-10.2-21C29.7,268.3,26.3,255.7,24.5,242.8z M162.4,465.1
		c-10.9-17.8-29-47.7-18.7-76c1.1-3,2.4-5.8,4.1-8.6c0,10,2,20,6,29.3c7.6,17.5,21.7,31.1,38.7,37.2c15.2,5.5,32.3,4.9,48.1-1.5
		c15.9-6.5,29.1-18.5,37.1-33.9l-14.2-7.4c-12.7,24.2-41.5,36.4-65.6,27.8c-12.9-4.6-23.6-15-29.4-28.5c-6.3-14.6-6.3-30.8,0-45.5
		l-12-9.7c-13.4,9.7-22.8,21.5-27.8,35.3c-13,35.6,8.5,70.9,20.1,89.8c1.6,2.6,3.2,5.1,4.9,7.6c-7.6-0.2-15.2-1.2-22.7-2.9
		c-9.8-2.3-19.4-5.8-28.3-10.5c-7.1-10.1-13-21.1-17.6-32.5c-3.1-7.7-5.6-15.7-7.5-23.9c5.8,1.4,11.7,2.2,17.7,2.2l8.6,0l-0.6-8.6
		c-0.5-7.1-0.1-14.2,1.1-21.1c4.3-23.7,17.9-40.5,28.6-50.5l-10.9-11.7c-12.5,11.6-28.4,31.3-33.5,59.3c-1,5.2-1.5,10.6-1.6,16
		c-3.5-0.5-6.9-1.3-10.3-2.5c-10.4-3.6-17.9-9.6-22.6-14.5c-3.9-13.9-6.8-34.8,0.1-58.4c8.3-28.2,26.7-45.9,38.4-54.7
		c5.1,10.7,12.2,21.3,22.5,31.2c13.6,13.1,30.8,22.7,50,28c1.7,3.6,3.6,7.1,5.6,10.6c21.9,36.4,60.6,56.6,100.3,56.6
		c20.5,0,41.2-5.4,60-16.7c8.2-4.9,15.5-10.7,22-17.1c2,13.1,1.5,26.2-1.5,38.5c-7.7,31.2-29.9,49.5-46.1,62.8
		c-36.8,30.3-78.4,40.9-107.9,44.4C183.4,493.5,171.6,480.1,162.4,465.1z M392.3,480.2c-8.1,10.2-17.4,19.5-27.6,27.5
		c-10.4,0.7-20.8,0.2-30.9-1.3c-15.6-2.4-30.5-7.4-44.5-14.9c8.9-5.2,17.8-11.3,26.5-18.5c7.8-6.4,16.9-13.9,25.4-23.3
		c10.4,4.8,29.4,11.8,52.9,11.8c3.7,0,7.5-0.2,11.4-0.6C401.5,467.6,397.1,474.1,392.3,480.2z M501,359.1
		c-5.1,6.6-10.8,12.7-16.9,18.5c-1.6-5.7-4-11.2-7-16.5l-4.3-7.5l-7.1,4.8c-5.9,4-12.3,7.2-18.8,9.6c-22.7,8.1-44.1,4.7-58,0.4
		l-4.7,15.3c16.3,5,41.3,8.9,68.1-0.7c5-1.8,9.9-4,14.6-6.6c1.3,3.3,2.3,6.7,3,10.1c2.1,10.8,0.6,20.3-1.2,26.8
		c-10.1,10.3-26.7,23.3-50.7,29.1c-28.5,6.9-53.1-0.2-66.6-5.9c6.7-9.7,12.4-21.2,15.8-35c4.6-18.5,4.2-38.4-0.9-57.8
		c25.9-36.7,29.4-86.8,4.8-127.7c-19.9-33.1-51.3-46.4-60.4-49.7c-0.5-0.2-3.5-1.2-8.4-2.4c10.1-7.9,21.3-13.7,33.1-17.1
		c30.9-8.9,57.8,1.1,77.5,8.5c44.6,16.8,74.7,47.5,92.4,71.3c-2.9,18-8.6,34.9-17.1,50.4c-10,18.3-26.8,49-56.5,54.2
		c-3.1,0.5-6.3,0.8-9.5,0.8c8.7-5,16.4-11.7,22.4-19.9c11.4-15.3,16-34.3,12.8-52.1c-2.9-15.9-11.9-30.4-25.3-40.9
		c-13.6-10.5-30.6-15.9-47.9-15.2l0.7,16c27.3-1.1,52.3,17.7,56.8,42.9c2.4,13.4-1.2,27.9-9.9,39.7c-9.5,12.8-23.5,20.9-39.4,22.7
		l-2.4,15.2c11,4.9,21.9,7.4,32.7,7.4c4,0,7.9-0.3,11.8-1c37.3-6.5,57.1-42.8,67.8-62.3c1.4-2.6,2.8-5.3,4.1-8.1
		c3.6,6.7,6.6,13.8,8.9,21.1c3,9.7,4.7,19.7,5.1,29.8C515.1,338.8,508.6,349.4,501,359.1z"/>
</g>
</svg>
