 <!DOCTYPE svg PUBLIC "-//W3C//DTD SVG 1.1//EN" "http://www.w3.org/Graphics/SVG/1.1/DTD/svg11.dtd">
<svg id="e7332811-20c8-4ee8-ad48-8b06a8794e95" data-name="Layer 1" xmlns="http://www.w3.org/2000/svg" width="865.76" height="682.89" viewBox="0 0 865.76 682.89">
<defs>
<style xmlns="http://www.w3.org/1999/xhtml">*, ::after, ::before { box-sizing: border-box; }
img, svg { vertical-align: middle; }
</style>
<style xmlns="http://www.w3.org/1999/xhtml">*, body, html { }
img, svg { max-width: 100%; }
</style>
</defs>
<g id="bdea779d-7d50-4402-b4bc-6c946651e775" data-name="freepik--background-complete--inject-555">
<rect x="696.75" y="288.17" width="74.7" height="19.76" fill="#ebebeb"/>
<path d="M739.87,328.76a2.16,2.16,0,0,1,0-.36v-4.9c0-3.42-.08-8.32-.14-14.51l.23.23-74.7.16.38-.39h0v19.73l-.37-.36,53.24.16,15.72.11h0l-15.63.09-53.5.17h-.42V308.78h0l.39-.39,74.7.16h.23v.23c0,6.25-.09,11.19-.12,14.63v4.82A2,2,0,0,1,739.87,328.76Z" fill="#e0e0e0"/>
<rect x="151.76" y="51.21" width="74.7" height="19.76" fill="#ebebeb"/>
<path d="M194.87,91.79V86.53c0-3.41,0-8.32-.13-14.5l.23.23-74.7.14c.17-.17-.38.39.38-.37h0V91.76l-.36-.36,53.08.18,15.71.09h5.36a2.67,2.67,0,0,1,.4,0h-5.58l-15.63.11-53.5.17h-.37V72.06h0l.39-.38,74.7.15h.23v.23c0,6.24-.09,11.2-.12,14.64v4.8A1.4,1.4,0,0,1,194.87,91.79Z" fill="#e0e0e0"/>
<rect x="125.84" y="608.68" width="74.7" height="19.76" fill="#ebebeb"/>
<path d="M169,649.26a2,2,0,0,1,0-.35V644c0-3.42,0-8.32-.12-14.51l.23.23-74.7.15c.17-.16-.39.39.37-.38h0v19.73l-.37-.37,53.23.17,15.71.11h.19l-15.64.09-53.49.17H94V629.29h0l.39-.39,74.7.16h.23v.23c0,6.25-.09,11.19-.12,14.63v4.82A2,2,0,0,1,169,649.26Z" fill="#e0e0e0"/>
<path d="M671.37,81.58a2,2,0,0,1,0-.35v-4.9c0-3.41,0-8.32-.13-14.51l.23.23-74.7.16.39-.39h0V81.57l-.37-.37,53.23.17,15.71.11h.19l-15.64.1-53.49.17h-.37V61.84h0c.77-.76.21-.2.38-.37l74.71.14h.23v.23c0,6.25-.1,11.19-.13,14.65v4.8C671.61,81.55,671.38,81.6,671.37,81.58Z" fill="#e0e0e0"/>
<path d="M681.5,61.82a2.28,2.28,0,0,1,0-.37v-5c0-3.47-.09-8.37-.15-14.39l.27.28-45,.1c-.34.34.46-.46.37-.38h0V61.81l-.36-.36,32.11.17,9.35.11h3.43a5.61,5.61,0,0,1-.82,0h-2.45l-9.22.11L636.68,62h-.37V42.07h0l.38-.38,44.89.11h.27v.26c0,6.14-.12,11-.15,14.54v3.92C681.7,61.48,681.52,61.85,681.5,61.82Z" fill="#e0e0e0"/>
<path d="M137.25,391.34v-5.25c0-3.42,0-8.32-.12-14.51l.23.23-74.7.15.38-.38h0v19.75l-.37-.37,53.24.17,15.71.11h.18l-15.63.1-53.5.17h-.36V371.38h0l.38-.38,74.7.15h.23v.23c0,6.25-.09,11.2-.12,14.65v5C137.27,391.25,137.27,391.36,137.25,391.34Z" fill="#e0e0e0"/>
<path d="M147.39,371.58a2.29,2.29,0,0,1,0-.37v-5c0-3.45-.09-8.35-.16-14.37l.28.28-44.88.1c-.34.34.46-.46.37-.38h0v19.75l-.36-.36,32.11.17,9.35.09h3.43a3.75,3.75,0,0,1-.82,0h-2.45l-9.22.11-32.35.17h-.37V351.63h0l.38-.38,44.89.11h.27v.27c0,6.15-.12,11-.15,14.55v3.9A3,3,0,0,1,147.39,371.58Z" fill="#e0e0e0"/>
<path d="M668.43,643.27a2,2,0,0,1,0-.35V638c0-3.42,0-8.32-.12-14.51l.23.23-74.7.16c.17-.17-.39.38.37-.39h0v19.75l-.39-.37,53.25.17,15.71.11H663l-15.63.1-53.5.17h-.37V623.53h0l.39-.39,74.7.16h.23v.23c0,6.25-.11,11.19-.14,14.65V643A1.15,1.15,0,0,1,668.43,643.27Z" fill="#e0e0e0"/>
<path d="M678.55,623.51V622.1c0-1,0-2.3-.07-4,0-3.47-.08-8.37-.14-14.39l.26.28-44.88.1.38-.38h0V623.5l-.37-.36,32.11.17,9.35.1h3.42a5.47,5.47,0,0,1-.81,0h-2.44l-9.21.1-32.36.17h-.35V603.57h0c0,.09.72-.73.38-.39l44.89.11H679v.28c0,6.14-.1,11-.14,14.54V622A7,7,0,0,1,678.55,623.51Z" fill="#e0e0e0"/>
<path d="M467.2,53.64a2.16,2.16,0,0,1,0-.36V48.37c0-3.41-.07-8.31-.13-14.49l.24.24-74.7.15c.18-.16-.4.4.4-.39h0V53.7l-.39-.39,53.23.17,15.72.13h.18l-15.63.1-53.5.19h-.39v-20h0l.39-.4,74.71.15h.24v.25c0,6.25-.1,11.19-.13,14.65v4.81A.26.26,0,0,1,467.2,53.64Z" fill="#ebebeb"/>
<path d="M771.31,477.22V472c0-3.41,0-8.33-.13-14.5l.24.25-74.7.15.4-.4h0v19.73l-.39-.38L750,477l15.71.11h.18l-15.63.1-53.5.19h-.4V457.49h0l.4-.4,74.71.16h.24v.24c0,6.24-.11,11.2-.14,14.65V477C771.33,477.13,771.33,477.24,771.31,477.22Z" fill="#ebebeb"/>
</g>
<rect x="243.43" y="83.64" width="273.82" height="542.25" rx="35.07" fill="#000000" data-secondary="true"/>
<rect x="243.43" y="83.64" width="273.82" height="542.25" rx="35.07" fill="#fff" opacity="0.2"/>
<rect x="247.75" y="87.94" width="265.2" height="533.63" rx="30.76" fill="#000000" data-secondary="true"/>
<path d="M483.25,91.61H444.81a13.69,13.69,0,0,0-13.15,9.87l-.65,2.24A14.66,14.66,0,0,1,417,114.28h-73.2a14.66,14.66,0,0,1-14.06-10.56l-.58-2.24A13.69,13.69,0,0,0,316,91.61H281a27.08,27.08,0,0,0-27.08,27.08v470.2a25.48,25.48,0,0,0,25.48,25.48H483.71a23.07,23.07,0,0,0,23.07-23.07h0V115.13A23.53,23.53,0,0,0,483.25,91.61Z" fill="#fafafa"/>
<rect x="267.31" y="312.7" width="231.28" height="74.44" rx="13.48" fill="#fff"/>
<path d="M485.1,387.65H280.79a14,14,0,0,1-14-14V326.19a14,14,0,0,1,14-14H485.1a14,14,0,0,1,14,14v47.47A14,14,0,0,1,485.1,387.65ZM280.79,313.2a13,13,0,0,0-13,13v47.47a13,13,0,0,0,13,13H485.1a13,13,0,0,0,13-13V326.19a13,13,0,0,0-13-13Z" fill="#000000" data-secondary="true"/>
<rect x="267.27" y="397.26" width="231.28" height="74.44" rx="13.48" fill="#fff"/>
<path d="M485.06,472.2H280.75a14,14,0,0,1-14-14V410.75a14,14,0,0,1,14-14H485.06a14,14,0,0,1,14,14v47.47A14,14,0,0,1,485.06,472.2ZM280.75,397.76a13,13,0,0,0-13,13v47.47a13,13,0,0,0,13,13H485.06a13,13,0,0,0,13-13V410.75a13,13,0,0,0-13-13Z" fill="#000000" data-secondary="true"/>
<path d="M152.71,585.77v11.37s9.39-1,10.63,3.71c0,0,1.24,11.37,7.66,8.9l5.69-4.45s-2.33-4.75-1.66-14.36l-2.54-10.61Z" fill="#f9b499"/>
<rect x="210.47" y="588.74" width="20.8" height="21.7" fill="#f9b499"/>
<path d="M180.64,619.64c-5.2,0-14.59,2.09-19.33,3.23a26.1,26.1,0,0,1-6.1.73H119.34c.74-5.44,14.83-9.4,14.83-9.4,7.67-1.24,14.09-11.37,14.09-11.37,1.48-7.17,4.45-5.68,4.45-5.68l3.71-3,8.28-1.43,12,12.55C180.64,611.48,180.64,619.64,180.64,619.64Z" fill="#064c31" data-primary="true"/>
<path d="M176.74,629.77H118.1c-.25-4.2,1.24-6.17,1.24-6.17h35.87a26.1,26.1,0,0,0,6.1-.73c4.74-1.14,14.13-3.23,19.33-3.23a5.46,5.46,0,0,1,1.33,1.57C184.14,625,181.14,629.77,176.74,629.77Z" fill="#000000" data-secondary="true"/>
<path d="M210.31,606.54l-.74,13.1s3.87,0,5.46,3.18c0,0,.71,2.88,11.22,1.88l21.54-1.1s1.77-4.84-7.18-9.9c0,0-2.12-.46-3.06-5.53,0,0,0-10.72-9.89-9.19,0,0-5.65-1.29-8.24,5.53C219.42,604.51,216,614.8,210.31,606.54Z" fill="#064c31" data-primary="true"/>
<path d="M209.57,619.64s-3.22,9.13,1.61,10.13h34s6.36,0,2.59-6.17l-21.54,1.1s-9.6,1-11.22-1.88C215,622.82,212.78,619.22,209.57,619.64Z" fill="#000000" data-secondary="true"/>
<path d="M109.41,215l21.87,32.66a.71.71,0,0,0,.78.3l19.48-5a.76.76,0,0,0,.43-1.17l-19.11-27.44a.51.51,0,0,0-.43-.23H109.84A.54.54,0,0,0,109.41,215Z" fill="#000000" data-secondary="true"/>
<path d="M109.41,215l21.87,32.66a.71.71,0,0,0,.78.3l19.48-5a.76.76,0,0,0,.43-1.17l-19.11-27.44a.51.51,0,0,0-.43-.23H109.84A.54.54,0,0,0,109.41,215Z" fill="#231f20" opacity="0.2"/>
<path d="M147.51,361.51l-5.1,97.62-4.93,119.73a6.3,6.3,0,0,0,4.52,6.31c8.39,2.45,25.68,7.06,33,5.77a3.51,3.51,0,0,0,2.83-3.27l5.57-93.4,4.94-53s9.69,39.89,10.26,77.88l5.16,71.07a2.55,2.55,0,0,0,2.43,2.37c7.26.31,29.8.73,36.06-5.58a4.78,4.78,0,0,0,1.3-3.59l-4.3-91.63s-5.72-76.11-6.85-88.3l-44.25-32.69Z" fill="#000000" data-secondary="true"/>
<path d="M146.41,358.8s-.78,3.84.93,5.93c0,0,18.81,22.41,65.35,35.71,0,0,10,3.55,19.74,3.06a2.53,2.53,0,0,0,2.37-2.67c-.27-5.32-1.14-18.22-3.5-27.94,0,0-2.28-11.77-1.9-20.89L203.55,239.36l-26.87,8.36-7.27-10-4.59,3.12-9.88,50.41Z" fill="#e6e7e8"/>
<path d="M139.12,342.9s-3.25,2.82,0,6.91l8.45,10.43s10.52-21.49,10.12-31.82l4.13-40.08s1.78-44.2,7.59-50.65c0,0-1.11-.53-3.79,1.44,0,0-23.83,13.25-27.35,23.83,0,0,8.54,39,10.47,54.47a18.9,18.9,0,0,1-1,8.79A74.4,74.4,0,0,1,139.12,342.9Z" fill="#064c31" data-primary="true"/>
<path d="M139.12,258.31s13,5.78,9.44,11.42c0,0-2.6.82-10.89-1.57Z" fill="#064c31" data-primary="true"/>
<path d="M139.12,258.31s13,5.78,9.44,11.42c0,0-2.6.82-10.89-1.57Z" fill="#231f20" opacity="0.4"/>
<path d="M162.76,240.81q-1.84,3.66-3.48,7.42c-1.09,2.5-2.09,5-3,7.61a48.93,48.93,0,0,0-2.11,7.85,23.5,23.5,0,0,0-.35,4,10.17,10.17,0,0,0,.71,3.85v0c1.06,3.48,2.13,7,3.13,10.46.51,1.75,1,3.5,1.52,5.25l1.47,5.27-1.78-5.17c-.6-1.72-1.15-3.46-1.72-5.19-1.16-3.45-2.26-6.92-3.35-10.4v.05a10.92,10.92,0,0,1-.82-4.15,20.64,20.64,0,0,1,.38-4.16,49.62,49.62,0,0,1,2.23-8c1-2.58,2.06-5.09,3.23-7.56S161.35,243.15,162.76,240.81Z" fill="#231f20" opacity="0.2"/>
<path d="M146.41,329.65a23.77,23.77,0,0,0,2.19-15.09l3.92,1.36s-2.75,6.48,5.17,12.5c0,0,11.9,9.58,37.41,12.67C195.1,341.09,175.69,344.6,146.41,329.65Z" fill="#231f20" opacity="0.2"/>
<path d="M148.6,291.41l10.31,4.84s-3.75,4.23-6.39,19.67l-3.92-1.36Z" fill="#f9b499"/>
<path d="M180.21,392.84c.81,4,1.54,8,2.26,12.07L184.55,417l1.94,12.12.94,6.07c.29,2,.61,4.05.94,6.07-1-4-1.74-8-2.5-12s-1.43-8.07-2.13-12.1-1.3-8.08-1.89-12.14S180.69,396.91,180.21,392.84Z" fill="#231f20" opacity="0.2"/>
<path d="M109.41,217.18,130.58,248a.71.71,0,0,0,.76.29l18.86-4.68a.71.71,0,0,0,.41-1.11l-18.49-25.9a.51.51,0,0,0-.42-.22H109.83A.51.51,0,0,0,109.41,217.18Z" fill="#000000" data-secondary="true"/>
<path d="M176.68,222v8.89s-1.09,3.74-7.27,6.83c0,0-1.41,24.22,9.09,24.35,0,0,17.19-12.75,25.05-22.68l2.71-6.05a22.3,22.3,0,0,1-12-20.5l-.37-8.74Z" fill="#f9b499"/>
<path d="M176.68,222v7s11.46-1.12,12.79-12.55Z" fill="#f7a48b"/>
<ellipse cx="176.68" cy="199.61" rx="17.07" ry="25.33" fill="#f9b499"/>
<path d="M159.87,195.18l1.19-5.8s8.2,2.88,17.44-3.09c0,0,5.83-3.3,6.77,1.88a2.67,2.67,0,0,0,1.33,3.53s2,.25,1.85,3.48c0,0-.76,5.29,2,5.24h3.3l.53,12.39s5.65-5.12,5.56-17.75c0,0,3.94-13.83-5.48-16.9a3.61,3.61,0,0,1-1.77-1.19,2.5,2.5,0,0,0-2.52-1.22,1.27,1.27,0,0,1-1.39-.45c-1.78-2.55-7.52-9.64-14.09-6.2a4.17,4.17,0,0,1-4.63-.78,9.1,9.1,0,0,0-2.28-1.62,8.5,8.5,0,0,0-10,1.57s-5,4.12-4.95,14.25c0,0-2.85-1.27-2.15-7.21a.14.14,0,0,0-.27-.08C149.3,178,147.56,186.47,159.87,195.18Z" fill="#000000" data-secondary="true"/>
<ellipse cx="194.69" cy="200.42" rx="4.24" ry="6.12" fill="#f9b499"/>
<path d="M182.44,293.15a5.25,5.25,0,0,1,.35-2.48l20.76-51.31,2.71-6.05a16.94,16.94,0,0,1,6.59,4.35s7.35,5.21,13.42,8.62a33.53,33.53,0,0,1,16.06,20q.33,1.16.6,2.4a40.94,40.94,0,0,1-3.26,26.06,79.23,79.23,0,0,1-5.61,9.92s-5.57,26.86,1.47,43.35a2.94,2.94,0,0,1-.84,3.47c-4.36,3.52-16.33,12.41-31.32,17.31,0,0-2.93,3.62-4.48-7.93l-3.79-19.82s-47.93-6.38-42.58-25.17c0,0,2.42-12.25,5.71-18.89a2.26,2.26,0,0,1,2.85-1.07c5,2,18.93,7.47,24.37,9.43a.58.58,0,0,0,.69-.84A29.39,29.39,0,0,1,182.44,293.15Z" fill="#064c31" data-primary="true"/>
<path d="M182.44,293.15q3.59-4,7.22-7.94c2.43-2.61,4.84-5.26,7.3-7.86l7.35-7.81c2.45-2.6,4.94-5.17,7.41-7.76l-.1.26c0-4.2,0-8.41.11-12.61s.14-8.41.26-12.62q.18,6.31.26,12.62c.06,4.2.11,8.41.11,12.61v.15l-.1.11c-2.46,2.6-4.89,5.22-7.37,7.8l-7.42,7.74c-2.47,2.59-5,5.13-7.48,7.69S185,290.63,182.44,293.15Z" fill="#231f20" opacity="0.2"/>
<path d="M186.22,304.69a21.94,21.94,0,0,1,7.88,1.47,20.4,20.4,0,0,1,3.62,1.81,14.49,14.49,0,0,1,3.07,2.61,35.12,35.12,0,0,0-3.39-2.05,34.77,34.77,0,0,0-3.59-1.6c-1.22-.47-2.47-.87-3.74-1.24S187.53,305,186.22,304.69Z" fill="#231f20" opacity="0.2"/>
<path d="M188.72,305.06a5.23,5.23,0,0,1,.55-2,7.89,7.89,0,0,1,1.15-1.71,10.53,10.53,0,0,1,1.51-1.4c.27-.21.56-.4.85-.6l.89-.52,0,0h.07a2,2,0,0,0,1.44-.69,3.86,3.86,0,0,0,.81-1.49,8.38,8.38,0,0,0,.32-1.73,17.57,17.57,0,0,0,0-1.78v-.06a16.72,16.72,0,0,1,.68-2.28,23.09,23.09,0,0,1,.94-2.16,25.74,25.74,0,0,1,2.51-4l-.06.12a33.92,33.92,0,0,1,2.95-6.38,41.55,41.55,0,0,1,4-5.74,44.51,44.51,0,0,1,4.88-5c.85-.8,1.79-1.5,2.7-2.23s1.9-1.35,2.85-2l0,0a37.71,37.71,0,0,1,4.51-3,43.05,43.05,0,0,1,4.83-2.35,31.64,31.64,0,0,1,5.12-1.6,26.55,26.55,0,0,1,5.32-.62,29.15,29.15,0,0,0-5.26.86,35.47,35.47,0,0,0-5,1.77A41.15,41.15,0,0,0,222.6,261a37.77,37.77,0,0,0-4.35,3h0l0,0c-.93.68-1.9,1.31-2.8,2s-1.81,1.42-2.64,2.21a46.36,46.36,0,0,0-8.72,10.6,33.88,33.88,0,0,0-2.93,6.18l0,.07,0,.05c-.46.61-.91,1.23-1.32,1.88s-.79,1.3-1.16,2-.68,1.37-1,2.08a16,16,0,0,0-.7,2.16v-.06c0,.62,0,1.24-.08,1.85a9.6,9.6,0,0,1-.38,1.83,4.41,4.41,0,0,1-1,1.64,2.33,2.33,0,0,1-1.78.74l.1,0-.89.48c-.28.19-.57.36-.84.55a10.76,10.76,0,0,0-1.54,1.31,7.92,7.92,0,0,0-1.19,1.63A5.16,5.16,0,0,0,188.72,305.06Z" fill="#231f20" opacity="0.2"/>
<path d="M208.89,334.54c1.17-1.14,2.35-2.28,3.48-3.46s2.29-2.33,3.38-3.54A74.21,74.21,0,0,0,222,320c.5-.64.92-1.33,1.37-2s.83-1.37,1.22-2.1a29.78,29.78,0,0,1,2.68-4.16c1-1.31,2-2.58,3.13-3.81a18.71,18.71,0,0,1,3.7-3.24,20.11,20.11,0,0,0-3.39,3.51c-1,1.26-2,2.57-2.93,3.91a38,38,0,0,0-2.53,4.15c-.37.71-.79,1.45-1.21,2.16s-.87,1.4-1.37,2.06a66.45,66.45,0,0,1-6.42,7.48A81.21,81.21,0,0,1,208.89,334.54Z" fill="#231f20" opacity="0.2"/>
<path d="M122.34,256.61s10.43,14.39,26.22,13.12l.18,47.7s1.94,11.65-7.93,14.33c0,0-17.91,4.8-23-7.75a15.83,15.83,0,0,1-1-11.84s1-3-.68-8c0,0-2.92-4.29.63-9.92a11.21,11.21,0,0,0,1.63-4.94C119.2,281.61,121.21,262.23,122.34,256.61Z" fill="#064c31" data-primary="true"/>
<path d="M122.34,256.61s10.43,14.39,26.22,13.12l.18,47.7s1.94,11.65-7.93,14.33c0,0-17.91,4.8-23-7.75a15.83,15.83,0,0,1-1-11.84s1-3-.68-8c0,0-2.92-4.29.63-9.92a11.21,11.21,0,0,0,1.63-4.94C119.2,281.61,121.21,262.23,122.34,256.61Z" fill="#231f20" opacity="0.3"/>
<path d="M121,265.55c1.07.77,2.14,1.57,3.22,2.32s2.16,1.54,3.25,2.29c2.19,1.48,4.38,3,6.63,4.33a71.64,71.64,0,0,0,6.93,3.79,32,32,0,0,0,3.66,1.45,14.89,14.89,0,0,0,3.87.74,13,13,0,0,1-4-.35,31.32,31.32,0,0,1-3.8-1.26,49.25,49.25,0,0,1-7.11-3.67c-2.26-1.4-4.46-2.91-6.57-4.52A78.67,78.67,0,0,1,121,265.55Z" fill="#231f20" opacity="0.3"/>
<path d="M122.34,256.61l1.55-11.13v-8.67s-5.78.91-5.36-2.61c0,0,.56-3,5.36-2.54,0,0,5.64-.17,5.36,1.39,0,0,1.26,2.29-2.54,3.76a10.91,10.91,0,0,0,9-.92c4.94-2.68,8.33-2.54,7.69,2.4,0,0,.35,1.12,2.32.28,0,0,2.81-2,3.87.14,0,0,1.07,1.13-1.75,4.23,0,0,1,5.07-6.77,6.63,0,0-1.79,1.05-2,8.74l-1.45,9.85A33,33,0,0,1,122.34,256.61Z" fill="#f9b499"/>
<path d="M640.76,446.64s1.12-4.49-3-3.3L617,453a4,4,0,0,0-2.16,2.56l-3.43,12.84-2.33,7.75,2.7,1.32,3.83,5.39,18.57-14.4Z" fill="#000000" data-secondary="true"/>
<path d="M640.76,446.64s1.12-4.49-3-3.3L617,453a4,4,0,0,0-2.16,2.56l-3.43,12.84-2.33,7.75,2.7,1.32,3.83,5.39,18.57-14.4Z" fill="#231f20" opacity="0.3"/>
<path d="M571.54,543.77s-32.95,32.31-45,60.26c0,0-12.88-13.4-18.36-30.13l26.58-103.06,4.16-4.5V456.9s3.88,3.05,12.65,1.72l9.12,8.86a157.24,157.24,0,0,1,4.54,30.94S563.65,516.12,571.54,543.77Z" fill="#e6e7e8"/>
<path d="M557.67,448.14s6.15.48,8.73,5.48c0,0,21.52,29,18.69,35.95l14.38,20.84,2.38,4.11s-27.6,26.25-30.31,29.25c0,0-8.2-32.42-6.32-45.35,0,0-1.9-21.29-4.54-30.94C560.68,467.48,561.37,453.36,557.67,448.14Z" fill="#064c31" data-primary="true"/>
<ellipse cx="552.81" cy="416.31" rx="17.73" ry="24.62" transform="translate(-30.42 43.81) rotate(-4.42)" fill="#f9b499"/>
<path d="M571.56,417.43a8.68,8.68,0,0,1,1.7-5.45c2.7-3.57,7.35-11.16,1.87-15,0,0-4.27-4.68-16.47-5.9,0,0-9.36-1-13.84-3.05,0,0-15.05-5.9-23,.81,0,0-3.87,2.65-3.87,8.95,0,0,.2,3.67-4.07,5.7,0,0-10.37,4.43-10.58,12.79,0,0-1.22,5.11,4.48,8,0,0,2.34.47.88,3.45a12,12,0,0,0-1.36,5.11c-.05,3,.75,7.18,4.95,9.34l18.11,2.65s6.08-11,2.43-18.11l2.23-12s9,2.46,10.8-7.71c0,0,12.21,2.85,16.68-6.71a7.74,7.74,0,0,1-3.86,7.32s5.36,1.78,8.58-4.6a32.49,32.49,0,0,1,2.66,21.29s-3.07,18.08-18.75,16.36l-.83,5.8a35.58,35.58,0,0,0,15.25,2l7.94,1s.42-5.5-1.09-8.28a6.14,6.14,0,0,1,.74-7.23l.14-.15a13.49,13.49,0,0,0,.33-10.48,8,8,0,0,0-1.17-1.86C572.1,421,571.63,419.94,571.56,417.43Z" fill="#000000" data-secondary="true"/>
<path d="M529,444.62a32.9,32.9,0,0,0-1.12-9.28s-.8-3,1.14-4.43c0,0,2-1.81,1.47-4a8.25,8.25,0,0,1-.38-11.87s-7.94,1.39-5.15,9.85a4.23,4.23,0,0,1-1.29,4.93s-3.69,3,0,8.78c0,0,1.33,3.45-.41,5.16Z" fill="#231f20" opacity="0.2"/>
<path d="M519.25,443.19l-2.85-5.28s-2.43-4.85.71-8.07c0,0,6.43-4.36,1.57-10.64,0,0-6.46-4.89-1.12-8.58a.17.17,0,0,0-.07-.31c-1.83-.07-7.91.15-7.67,6a8,8,0,0,0,4,6.6s2.72,2.38-1.14,4.83c0,0-7.1,5.55-.41,14.43Z" fill="#231f20" opacity="0.2"/>
<path d="M562.52,400.27s-12,7.64-22.07,1.64a11.64,11.64,0,0,0,5.39,5.07S557.22,410.05,562.52,400.27Z" fill="#231f20" opacity="0.2"/>
<path d="M569.9,424.28s1.64,7.2-1.93,10.92a5.57,5.57,0,0,0,0,4.57,12.81,12.81,0,0,1,.9,9.13l-3.3-.42a11.46,11.46,0,0,0,0-7.28s-2-2.59.55-7.66A22.43,22.43,0,0,0,569.9,424.28Z" fill="#231f20" opacity="0.2"/>
<path d="M561.67,438.18s1,8.9-1.27,10.31a52.15,52.15,0,0,1-10.08-2.05l.83-5.8S557.66,441.89,561.67,438.18Z" fill="#231f20" opacity="0.2"/>
<path d="M551.15,440.64l-.83,5.8,2.49.75s.78,10.15-1.25,11.43c0,0-10.74,1.86-16-4.42a51.56,51.56,0,0,1-5.16-9.38s5.73-10.5,2.43-18.11l3.79-1.46S539.85,437.4,551.15,440.64Z" fill="#f9b499"/>
<path d="M551.15,440.64l-.83,5.8s-8-1.91-8.65-11.79C541.67,434.65,544.47,438.8,551.15,440.64Z" fill="#f7a48b"/>
<path d="M538.91,456.9v9.44s-19.43-7-19.84-20.4a3.43,3.43,0,0,1,2.85-3.41c2.81-.51,7-.71,8.46,2.29a65.31,65.31,0,0,0,5.16,9.38A10.52,10.52,0,0,0,538.91,456.9Z" fill="#064c31" data-primary="true"/>
<path d="M538.91,456.9v9.44s-19.43-7-19.84-20.4a3.43,3.43,0,0,1,2.85-3.41c2.81-.51,7-.71,8.46,2.29a65.31,65.31,0,0,0,5.16,9.38A10.52,10.52,0,0,0,538.91,456.9Z" fill="#fff" opacity="0.5"/>
<path d="M538.91,466.34s-3.09,34,15.34,92c0,0-10.28,14-49.28,19.14,0,0-9.86-3.21-10.93-39.86,0,0-.22-34.07-1.72-44.14,0,0-5.4-17,1.69-30.2.91-1.68,1.68-3.43,2.42-5.19,1.56-3.66,6.6-10.34,22.82-11.65C519.25,446.44,520.57,457.84,538.91,466.34Z" fill="#064c31" data-primary="true"/>
<path d="M548.18,537.26l1.53,5.73s-36,2.15-56.32-34.71l-1.07-14.8,39.86,27Z" fill="#231f20" opacity="0.2"/>
<path d="M560.68,467.48l-9.12-8.86s1.81-1.15,1.25-11.43l4.86.95S561.52,452,560.68,467.48Z" fill="#064c31" data-primary="true"/>
<path d="M560.68,467.48l-9.12-8.86s1.81-1.15,1.25-11.43l4.86.95S561.52,452,560.68,467.48Z" fill="#fff" opacity="0.5"/>
<path d="M585.09,489.57s1-2.74-1.34-7.6l-18.63,14.94.1,1.51Z" fill="#231f20" opacity="0.2"/>
<path d="M584,531.55l17.82-17-2.38-4.11s-12.26,9.93-17.65,13.21Z" fill="#231f20" opacity="0.2"/>
<path d="M640.76,446.64l-6.55,21.79-18.57,14.4-3.83-5.39L617.67,456a3,3,0,0,1,1.67-2L639,445.07A1.31,1.31,0,0,1,640.76,446.64Z" fill="#000000" data-secondary="true"/>
<path d="M754.05,583.08l-11,20.95L643.73,560.9s-26.33,25-35.94,33.15l-5.94-30.36L622.72,541l45.54-11.73Z" fill="#000000" data-secondary="true"/>
<path d="M754.05,583.08l-11,20.95L643.73,560.9s-26.33,25-35.94,33.15l-5.94-30.36L622.72,541l45.54-11.73Z" fill="#231f20" opacity="0.4"/>
<path d="M698.19,580.92l3,3.57h9.11L708,598.74l-18.46,4s-4.18-9.29-8.63-14Z" fill="#f9b499"/>
<path d="M706.69,608.79l3.1,7.31a1.86,1.86,0,0,1-.59,2.21l-6,4.59a1.86,1.86,0,0,1-2.76-.57l-10.87-19.62,16-3.44a3.71,3.71,0,0,0,2.87-3l1.93-11.76,26.17-2.57s6-1,10.31.78a3.23,3.23,0,0,1,.82,5.51l-19.88,16a12.69,12.69,0,0,1-8.29,2.8l-11.39-.29A1.48,1.48,0,0,0,706.69,608.79Z" fill="#064c31" data-primary="true"/>
<polygon points="753.47 584.19 758.02 587.06 767.37 581.63 772.98 595.24 758.02 608.09 745.17 600.01 753.47 584.19" fill="#f9b499"/>
<path d="M803.38,565.17l-13,29a6.27,6.27,0,0,1-2.92,3L774,604l8.8,7.67-5.6,10.39-19.18-14,15-12.85-5.61-13.61,25.16-16s2.77-2.53,10.15-1.64A.88.88,0,0,1,803.38,565.17Z" fill="#064c31" data-primary="true"/>
<ellipse cx="532.81" cy="420.84" rx="4.93" ry="6.9" fill="#f9b499"/>
<ellipse cx="533.17" cy="420.84" rx="0.97" ry="1.56" fill="#f7a48b"/>
<path d="M565.12,496.91s-18.34,12.62-25.27,1.78a23.31,23.31,0,0,0-2.47-3.22c-1.83-2-5.3-6.56-10.38-16.38,0,0,.25,26.8,10.74,30,0,0,20.32.17,27.48-10.7Z" fill="#231f20" opacity="0.2"/>
<path d="M526.32,476.12c1.42,9.65,12.59,24.22,12.59,24.22,5.44,6.64,11.41,4.71,11.41,4.71L598,483.84c8.35-2.14,9,6.64,9,6.64s4.5,10.5-7.5,19.93c0,0-26.31,23.67-49.81,26.61a32.57,32.57,0,0,1-14-1.39c-10.81-3.5-36.58-14.59-43.31-42.15" fill="#064c31" data-primary="true"/>
<path d="M602.46,483.81l2.24-2.12a3.6,3.6,0,0,0,1.1-2.48c.09-2.13.93-6.45,5.64-10.84v.95a3.36,3.36,0,0,0,5.72,2.39c.11-.1.21-.21.32-.32l9.76-10.31a1.32,1.32,0,0,1,1.76-.14h0a1.32,1.32,0,0,1,.26,1.82l-7,9.5a1,1,0,0,0,.21,1.36h0a1,1,0,0,0,1.23-.08l8.61-8a1,1,0,0,1,1.53.15h0a1,1,0,0,1-.06,1.33l-4.55,5,4.16-2.95a1.17,1.17,0,0,1,1.64.3h0a1.17,1.17,0,0,1-.17,1.49l-2.16,2h0a1.81,1.81,0,0,1,0,2.77l-25,21.84a18.19,18.19,0,0,0-.82-7S606.17,484.76,602.46,483.81Z" fill="#f9b499"/>
<path d="M632.73,472.9a11.07,11.07,0,0,0-4.75,4.54,9.8,9.8,0,0,0,2.72-1.91A10,10,0,0,0,632.73,472.9Z" fill="#f7a48b"/>
<path d="M701.64,579.36,677.86,590.1a3.67,3.67,0,0,1-4.26-.92,137.69,137.69,0,0,0-14.92-14.93S640.81,562,635.26,547.9c0,0-21.66,46.55-42.16,61.18,0,0-30.69,28.54-66.57-5.05,0,0,8.8-24.29,45-60.26l30.31-29.25s15.87-16.46,25.5-18.48a7,7,0,0,1,4.55.64c5.38,2.69,23.76,13.12,39.07,36.58l32,40.63A3.57,3.57,0,0,1,701.64,579.36Z" fill="#000000" data-secondary="true"/>
<path d="M360.69,105a3,3,0,0,1,0-6.09h39.15a3,3,0,1,1,0,6.09Z" fill="#fff" opacity="0.2"/>
<path d="M339.68,105a3,3,0,1,1,3.05-3h0A3.06,3.06,0,0,1,339.68,105Z" fill="#fff" opacity="0.2"/>
<path d="M350.89,105a3,3,0,1,1,3.05-3h0A3.06,3.06,0,0,1,350.89,105Z" fill="#fff" opacity="0.2"/>
<path d="M421,105a3,3,0,1,1,3-3A3,3,0,0,1,421,105Z" fill="#fff" opacity="0.2"/>
<path d="M409.81,105a3,3,0,1,1,3-3A3,3,0,0,1,409.81,105Z" fill="#fff" opacity="0.2"/>
<path d="M517.61,263.81h-.31V201.53h.31A1.49,1.49,0,0,1,519.1,203h0v59.37A1.49,1.49,0,0,1,517.61,263.81Z" fill="#000000" data-secondary="true"/>
<path d="M517.61,263.81h-.31V201.53h.31A1.49,1.49,0,0,1,519.1,203h0v59.37A1.49,1.49,0,0,1,517.61,263.81Z" fill="#fff" opacity="0.2"/>
<path d="M243,239.9h.39v39.45H243a1.48,1.48,0,0,1-1.48-1.48h0V241.38A1.48,1.48,0,0,1,243,239.9Z" fill="#000000" data-secondary="true"/>
<path d="M243,188.34h.39V227.8H243a1.48,1.48,0,0,1-1.48-1.48h0V189.83A1.49,1.49,0,0,1,243,188.34Z" fill="#000000" data-secondary="true"/>
<path d="M243.14,149.65h.29V168h-.29a1.31,1.31,0,0,1-1.31-1.31V151a1.31,1.31,0,0,1,1.31-1.31Z" fill="#000000" data-secondary="true"/>
<g opacity="0.2">
<path d="M243,239.9h.39v39.45H243a1.48,1.48,0,0,1-1.48-1.48h0V241.38A1.48,1.48,0,0,1,243,239.9Z" fill="#fff"/>
<path d="M243,188.34h.39V227.8H243a1.48,1.48,0,0,1-1.48-1.48h0V189.83A1.49,1.49,0,0,1,243,188.34Z" fill="#fff"/>
<path d="M243.14,149.65h.29V168h-.29a1.31,1.31,0,0,1-1.31-1.31V151a1.31,1.31,0,0,1,1.31-1.31Z" fill="#fff"/>
</g>
<rect x="445.4" y="109.25" width="1.88" height="2.64" fill="#000000" data-secondary="true"/>
<rect x="448.46" y="108.08" width="1.88" height="3.81" fill="#000000" data-secondary="true"/>
<rect x="451.52" y="107.19" width="1.88" height="4.69" fill="#000000" data-secondary="true"/>
<rect x="454.58" y="105.49" width="1.88" height="6.39" fill="#000000" data-secondary="true"/>
<path d="M484.23,112h-9.45a.68.68,0,0,1-.68-.68v-4.69a.69.69,0,0,1,.68-.68h9.45a.2.2,0,0,1,.11,0,.15.15,0,0,1,0,.13v1.59h1a.17.17,0,0,1,.17.17v2.26a.16.16,0,0,1-.16.17h-1v1.55A.16.16,0,0,1,484.23,112Zm-.12-5.7h-9.27a.33.33,0,0,0-.33.33v4.69a.32.32,0,0,0,.33.33h9.27v-1.55a.19.19,0,0,1,.18-.18h1V108h-1a.19.19,0,0,1-.18-.18h0Z" fill="#000000" data-secondary="true"/>
<polygon points="475.23 110.9 475.23 107.08 483.28 107.08 483.28 108.81 483.28 109.18 483.28 110.9 475.23 110.9" fill="#000000" data-secondary="true"/>
<path d="M465.47,111.66a.7.7,0,1,0-.69.69A.69.69,0,0,0,465.47,111.66Z" fill="#000000" data-secondary="true"/>
<path d="M462.42,110l.88.88a2.08,2.08,0,0,1,2.94,0l.89-.88a3.35,3.35,0,0,0-2.35-1A3.27,3.27,0,0,0,462.42,110Z" fill="#000000" data-secondary="true"/>
<path d="M464.73,107.05A5.34,5.34,0,0,0,461,108.6l.89.89a4,4,0,0,1,5.7,0l0,0,.88-.89A5.28,5.28,0,0,0,464.73,107.05Z" fill="#000000" data-secondary="true"/>
<path d="M459.6,107.18l.89.87a6.07,6.07,0,0,1,8.58,0l.88-.87a7.32,7.32,0,0,0-10.35,0Z" fill="#000000" data-secondary="true"/>
<path d="M468.89,184.68H297.28a17.08,17.08,0,0,1-17.08-17.07h0a17.08,17.08,0,0,1,17.08-17.06H468.89A17.06,17.06,0,0,1,486,167.61h0A17.06,17.06,0,0,1,468.89,184.68Z" fill="#e0e0e0"/>
<path d="M473.65,174.71l-3.88-3.39a6.48,6.48,0,0,0,1.16-3.71h0a6.52,6.52,0,1,0-2,4.7l3.8,3.33a.68.68,0,0,0,.43.15.62.62,0,0,0,.49-1.07Zm-9.23-1.88a5.22,5.22,0,1,1,5.21-5.22A5.22,5.22,0,0,1,464.42,172.83Z" fill="#000000" data-secondary="true"/>
<path d="M361.89,510a5.54,5.54,0,1,1-5.53-5.53A5.53,5.53,0,0,1,361.89,510Z" fill="#ebebeb"/>
<path d="M380.31,510a5.54,5.54,0,1,1-5.53-5.53A5.53,5.53,0,0,1,380.31,510Z" fill="#e0e0e0"/>
<circle cx="393.23" cy="509.98" r="5.51" fill="#e0e0e0"/>
<path d="M417.16,510a5.54,5.54,0,1,1-5.54-5.53A5.54,5.54,0,0,1,417.16,510Z" fill="#e0e0e0"/>
<rect x="277.86" y="537.38" width="44.4" height="44.4" rx="12.55" fill="#064c31" data-primary="true"/>
<rect x="333.21" y="536.97" width="44.4" height="44.4" rx="13.3" fill="#e0e0e0"/>
<rect x="388.55" y="536.55" width="44.4" height="44.4" rx="14.06" fill="#064c31" data-primary="true"/>
<rect x="443.88" y="537.38" width="44.4" height="44.4" rx="14.23" fill="#000000" data-secondary="true"/>
<path d="M400.4,569.53l1.62-6a11,11,0,0,1-1.39-5.38,11.19,11.19,0,1,1,5.84,9.78Zm6.36-3.89.38.24a9.12,9.12,0,1,0-3.1-3.09l.23.39-.9,3.38Z" fill="#fff"/>
<path d="M415.77,559.74a1.83,1.83,0,0,0-1.59-.36c-.42.16-.68.81-1,1.14a.39.39,0,0,1-.51.11,7.2,7.2,0,0,1-3.61-3.1.44.44,0,0,1,0-.59,2.5,2.5,0,0,0,.67-1.07,2.35,2.35,0,0,0-.3-1.26,2.92,2.92,0,0,0-.94-1.38,1.25,1.25,0,0,0-1.38.21,2.75,2.75,0,0,0-1,2.21,3.36,3.36,0,0,0,.08.71,6.77,6.77,0,0,0,.68,1.56c.22.37.46.73.71,1.08a11.28,11.28,0,0,0,3.11,2.89,9.53,9.53,0,0,0,1.91.9,4.18,4.18,0,0,0,2.23.36,2.76,2.76,0,0,0,2-1.51,1.4,1.4,0,0,0,.1-.76C416.91,560.3,416.2,560,415.77,559.74Z" fill="#fff" fill-rule="evenodd"/>
<path d="M307.89,562.25a3.51,3.51,0,0,0-3-.67c-.79.31-1.28,1.55-1.8,2.17a.74.74,0,0,1-1,.22,13.64,13.64,0,0,1-6.86-5.87.85.85,0,0,1,.1-1.15,4.54,4.54,0,0,0,1.25-2,4.44,4.44,0,0,0-.56-2.39c-.41-.89-.87-2.16-1.77-2.66a2.4,2.4,0,0,0-2.63.39A5.62,5.62,0,0,0,290,555.8a10.46,10.46,0,0,0,1.29,3,16.62,16.62,0,0,0,1.38,2,20.65,20.65,0,0,0,5.83,5.42,19.11,19.11,0,0,0,3.62,1.73,8.22,8.22,0,0,0,4.24.66,5.13,5.13,0,0,0,3.83-2.85,2.5,2.5,0,0,0,.18-1.45C310.07,563.28,308.71,562.74,307.89,562.25Z" fill="#fff" fill-rule="evenodd"/>
<path d="M473,552.47a1.3,1.3,0,1,0,1.3,1.3,1.3,1.3,0,0,0-1.3-1.3Z" fill="#fff"/>
<path d="M467.27,553.76a5.45,5.45,0,1,0,5.44,5.46h0A5.47,5.47,0,0,0,467.27,553.76Zm0,8.94a3.49,3.49,0,1,1,3.48-3.49h0A3.48,3.48,0,0,1,467.27,562.7Z" fill="#fff"/>
<path d="M471.65,570.64h-8.83a6.64,6.64,0,0,1-6.64-6.64v-8.83a6.64,6.64,0,0,1,6.64-6.64h8.83a6.64,6.64,0,0,1,6.65,6.64V564A6.64,6.64,0,0,1,471.65,570.64Zm-8.83-20a4.57,4.57,0,0,0-4.56,4.57V564a4.56,4.56,0,0,0,4.56,4.56h8.83a4.56,4.56,0,0,0,4.57-4.56v-8.83a4.57,4.57,0,0,0-4.57-4.57Z" fill="#fff"/>
<path d="M345.58,570a1,1,0,0,1-1-1,1,1,0,0,1,.28-.67l5.27-5.27a9,9,0,1,1,1.38,1.4l-5.27,5.27A1,1,0,0,1,345.58,570Zm11.61-19.65a7.05,7.05,0,1,0,5,2.06A7,7,0,0,0,357.19,550.34Z" fill="#fff"/>
<path d="M400.23,272.09a1.85,1.85,0,0,0,.47,0,2.51,2.51,0,0,0,1.2-.53,2.34,2.34,0,0,0,.61-.72,2.18,2.18,0,0,0,.2-.5,3.68,3.68,0,0,0,.07-.58,2.11,2.11,0,0,0-.1-.61,3.11,3.11,0,0,0-.22-.65,2.4,2.4,0,0,0-1-.94h0a1.69,1.69,0,0,0-2.89-1.26h0v-.07a3.25,3.25,0,0,0-2-2.3,3.72,3.72,0,0,0-.8-.19h-.83a3,3,0,0,0-1.39.68,3.57,3.57,0,0,0-.91,1.2,3.16,3.16,0,0,0-.26,1.39h0a2.31,2.31,0,0,0-1.57.18,2.87,2.87,0,0,0-.62.43,2.63,2.63,0,0,0-.46.54,1.93,1.93,0,0,0-.23.62,2.15,2.15,0,0,0,0,.62,2.54,2.54,0,0,0,.33,1,2.51,2.51,0,0,0,1.12,1,4.72,4.72,0,0,0,.53.18h-.31l-.23-.09a2.4,2.4,0,0,1-1.15-1,2.7,2.7,0,0,1-.35-1.07,2.29,2.29,0,0,1,0-.64,2.28,2.28,0,0,1,.72-1.2,2.32,2.32,0,0,1,.64-.43,2.39,2.39,0,0,1,1.62-.21h0a3,3,0,0,1,.27-1.38,3.82,3.82,0,0,1,.93-1.25,3.11,3.11,0,0,1,1.38-.69h.85a2.36,2.36,0,0,1,.83.21,3.31,3.31,0,0,1,2,2.34h0a1.8,1.8,0,0,1,2.05-.35,1.83,1.83,0,0,1,1,1.66h0a2.55,2.55,0,0,1,1.06,1,3,3,0,0,1,.26.62,2.72,2.72,0,0,1,.08.63,1.47,1.47,0,0,1,0,.59,1.57,1.57,0,0,1-.21.5,2.09,2.09,0,0,1-.62.73,2.42,2.42,0,0,1-1.23.52,1.09,1.09,0,0,1-.36,0Z" fill="#263238"/>
<path d="M400.45,272.33h-.26a.2.2,0,0,1-.18-.15.22.22,0,0,1,0-.22.26.26,0,0,1,.21,0,2.67,2.67,0,0,0,.4,0,2.33,2.33,0,0,0,1.09-.48,2.05,2.05,0,0,0,.73-1.11,2.17,2.17,0,0,0,0-.51,3.35,3.35,0,0,0-.08-.54,2.28,2.28,0,0,0-.23-.56,2.1,2.1,0,0,0-.93-.84.27.27,0,0,1-.15-.22,1.52,1.52,0,0,0-.81-1.39,1.47,1.47,0,0,0-1.68.3h0a.31.31,0,0,1-.23,0,.26.26,0,0,1-.15-.17v-.08a3,3,0,0,0-1.85-2.12,2.44,2.44,0,0,0-.75-.19h-.75a2.65,2.65,0,0,0-1.38.63,3.33,3.33,0,0,0-.85,1.12,2.75,2.75,0,0,0-.24,1.29h0a.19.19,0,0,1-.28.18h0a2,2,0,0,0-1.39.17,2.63,2.63,0,0,0-.56.38,2.86,2.86,0,0,0-.42.5,2.25,2.25,0,0,0-.22.56,1.57,1.57,0,0,0,0,.53,2.15,2.15,0,0,0,.29,1,2.26,2.26,0,0,0,1,.95,2.07,2.07,0,0,0,.42.14.31.31,0,0,1,.2.11.28.28,0,0,1,0,.18.25.25,0,0,1-.29.16h-.32l-.21-.09a2.69,2.69,0,0,1-1.24-1.12,2.79,2.79,0,0,1-.38-1.16,2.66,2.66,0,0,1,0-.69,2.27,2.27,0,0,1,.27-.71,2.77,2.77,0,0,1,.51-.62,2.94,2.94,0,0,1,.68-.47,2.63,2.63,0,0,1,1.38-.26,3.41,3.41,0,0,1,.29-1.22,4,4,0,0,1,1-1.39,3.34,3.34,0,0,1,1.58-.74.92.92,0,0,1,.33,0h.58a3,3,0,0,1,.88.2,3.72,3.72,0,0,1,2.07,2.12,2,2,0,0,1,2-.11,2,2,0,0,1,1.09,1.69,2.84,2.84,0,0,1,1,1,3.08,3.08,0,0,1,.29.67,3.83,3.83,0,0,1,.09.69,2.22,2.22,0,0,1-.08.63,2.49,2.49,0,0,1-.23.59,2.83,2.83,0,0,1-.68.78,2.72,2.72,0,0,1-1.39.57Z" fill="#000000" data-secondary="true"/>
<path d="M394.93,270.49a12.07,12.07,0,0,1-.62,1.11,8.68,8.68,0,0,1-.7,1.08,7.67,7.67,0,0,1,.63-1.12A8.12,8.12,0,0,1,394.93,270.49Z" fill="#263238"/>
<path d="M393.63,272.92h-.13c-.22-.14-.22-.18.54-1.39s.74-1.15.83-1.17a.25.25,0,0,1,.17,0h0a.28.28,0,0,1,.11.13c0,.1,0,.16-.65,1.29S393.77,272.92,393.63,272.92Z" fill="#000000" data-secondary="true"/>
<path d="M397,270.49a10.1,10.1,0,0,1-.62,1.11,9.92,9.92,0,0,1-.69,1.08,7.16,7.16,0,0,1,.61-1.12A9.36,9.36,0,0,1,397,270.49Z" fill="#263238"/>
<path d="M395.68,272.9h-.13c-.21-.14-.21-.16.56-1.38s.73-1.15.83-1.18a.22.22,0,0,1,.16,0h0c.21.13.21.17-.54,1.39s-.73,1.14-.83,1.17Z" fill="#000000" data-secondary="true"/>
<path d="M399,270.49a7.46,7.46,0,0,1-.61,1.11,7.74,7.74,0,0,1-.71,1.08,12.33,12.33,0,0,1,.63-1.12A12.16,12.16,0,0,1,399,270.49Z" fill="#263238"/>
<path d="M397.75,272.92h-.14c-.2-.14-.2-.18.54-1.39s.74-1.15.83-1.17a.28.28,0,0,1,.18,0h0a.21.21,0,0,1,.1.13c0,.1,0,.16-.65,1.29S397.88,272.92,397.75,272.92Z" fill="#000000" data-secondary="true"/>
<path d="M392.55,273.55c-.19.39-.4.76-.62,1.12a9.36,9.36,0,0,1-.7,1.07,10,10,0,0,1,.61-1.11A12.55,12.55,0,0,1,392.55,273.55Z" fill="#263238"/>
<path d="M391.23,276h-.12a.26.26,0,0,1-.1-.13c0-.1,0-.14.65-1.29s.78-1.27,1-1.14h0c.21.13.21.17-.54,1.39s-.73,1.15-.83,1.17Z" fill="#000000" data-secondary="true"/>
<path d="M394.6,273.55a8.61,8.61,0,0,1-.61,1.12,7.64,7.64,0,0,1-.71,1.07s.27-.51.63-1.11A12.32,12.32,0,0,1,394.6,273.55Z" fill="#263238"/>
<path d="M393.3,276h-.13a.19.19,0,0,1-.1-.13c0-.1,0-.14.64-1.28s.79-1.28,1-1.15h0c.21.13.21.17-.55,1.39s-.74,1.15-.83,1.17Z" fill="#000000" data-secondary="true"/>
<path d="M396.66,273.55a18.71,18.71,0,0,1-1.32,2.19s.27-.51.63-1.11A12.32,12.32,0,0,1,396.66,273.55Z" fill="#263238"/>
<path d="M395.34,276a.11.11,0,0,1-.11,0,.21.21,0,0,1-.11-.13c0-.1,0-.14.65-1.29s.79-1.27,1-1.14h0c.22.13.22.17-.54,1.39s-.73,1.15-.83,1.17Z" fill="#000000" data-secondary="true"/>
<path d="M398.8,273.61a8.53,8.53,0,0,1-.6,1.11,11.77,11.77,0,0,1-.7,1.07,10.15,10.15,0,0,1,.61-1.12A12,12,0,0,1,398.8,273.61Z" fill="#263238"/>
<path d="M397.52,276h-.14c-.21-.14-.21-.18.54-1.38s.75-1.15.83-1.18a.28.28,0,0,1,.18,0h0a.24.24,0,0,1,.1.14c0,.1,0,.15-.64,1.29S397.66,276,397.52,276Z" fill="#000000" data-secondary="true"/>
<path d="M359,262.19v15.35h-1.58v-14h-3.63V262.2Z" fill="#000000" data-secondary="true"/>
<path d="M374.47,273.26c0,2.77-2.29,4.42-6,4.42s-5.92-1.69-5.92-4.42a3.84,3.84,0,0,1,3-3.78,3.45,3.45,0,0,1-2.41-3.37c0-2.49,2.13-4.06,5.37-4.06s5.43,1.57,5.43,4.06a3.48,3.48,0,0,1-2.47,3.37A3.87,3.87,0,0,1,374.47,273.26Zm-1.61,0c0-1.89-1.62-3.07-4.35-3.07s-4.32,1.18-4.32,3.07,1.61,3.09,4.32,3.09,4.35-1.21,4.35-3.1Zm-4.35-4.33c2.39,0,3.82-1.07,3.82-2.77s-1.51-2.77-3.82-2.77-3.79,1.06-3.79,2.77,1.4,2.76,3.79,2.76Z" fill="#000000" data-secondary="true"/>
<path d="M376.45,264.67a3.81,3.81,0,1,1,4.1,3.49h-.3a3.53,3.53,0,0,1-3.79-3.23C376.46,264.85,376.45,264.76,376.45,264.67Zm6.45,0a2.65,2.65,0,1,0-2.79,2.51h.14a2.48,2.48,0,0,0,2.65-2.29v-.23Z" fill="#000000" data-secondary="true"/>
<path d="M335.27,216v29.25h-5.43V220.58h-6.18V216Z" fill="#000000" data-secondary="true"/>
<path d="M341.08,230.64c0-9.61,5.26-15,12.19-15s12.25,5.42,12.25,15-5.27,15-12.25,15S341.08,240.24,341.08,230.64Zm19,0c0-7.06-2.77-10.31-6.77-10.31s-6.72,3.25-6.72,10.31S349.32,241,353.27,241,360,237.7,360,230.64Z" fill="#000000" data-secondary="true"/>
<path d="M369,226.17a3.43,3.43,0,1,1,6.85-.44,3.23,3.23,0,0,1,0,.44,3.43,3.43,0,1,1-6.85.43A3.09,3.09,0,0,1,369,226.17Zm0,15.91a3.43,3.43,0,1,1,6.85-.43,3.09,3.09,0,0,1,0,.43,3.43,3.43,0,1,1-6.85.44A3.23,3.23,0,0,1,369,242.08Z" fill="#000000" data-secondary="true"/>
<path d="M379.39,230.64c0-9.61,5.26-15,12.19-15s12.26,5.42,12.26,15-5.27,15-12.25,15S379.39,240.24,379.39,230.64Zm19,0c0-7.06-2.77-10.31-6.77-10.31s-6.73,3.25-6.73,10.31S387.62,241,391.58,241s6.73-3.26,6.73-10.32Z" fill="#000000" data-secondary="true"/>
<path d="M407.51,230.64c0-9.61,5.26-15,12.19-15s12.24,5.42,12.24,15-5.26,15-12.24,15S407.51,240.24,407.51,230.64Zm19,0c0-7.06-2.77-10.31-6.77-10.31S413,223.58,413,230.64,415.74,241,419.7,241,426.47,237.7,426.47,230.64Z" fill="#000000" data-secondary="true"/>
<path d="M482,328.45a.42.42,0,0,1-.3-.12.41.41,0,0,1,0-.58l5.69-5.46a.42.42,0,1,1,.58.6h0l-5.69,5.45A.39.39,0,0,1,482,328.45Z" fill="#000000" data-secondary="true"/>
<path d="M487.62,328.48a.46.46,0,0,1-.29-.11l-5.63-5.54a.39.39,0,0,1,0-.56v0a.41.41,0,0,1,.58,0l5.64,5.54a.42.42,0,0,1,0,.59.44.44,0,0,1-.29.11Z" fill="#000000" data-secondary="true"/>
<path d="M317.48,364.52l-2.31-3.3a11.83,11.83,0,0,1-2.16-6.78v-7.39a12,12,0,0,0-10.22-11.9v-3.53a1.63,1.63,0,0,0-1.62-1.62h0a1.62,1.62,0,0,0-1.62,1.62h0v3.48a12,12,0,0,0-10.64,12v7.65A11.77,11.77,0,0,1,286.4,362l-2,2.55Z" fill="#064c31" data-primary="true"/>
<path d="M299.2,369.89a5.22,5.22,0,0,0,5.41-.93,5.09,5.09,0,0,0,1.39-2.09l-9.69-.07A5.27,5.27,0,0,0,299.2,369.89Z" fill="#064c31" data-primary="true"/>
<path d="M481.22,413.81a.41.41,0,0,1-.43-.4.43.43,0,0,1,.14-.32l5.64-5.39a.41.41,0,0,1,.58,0,.4.4,0,0,1,0,.56l0,0-5.66,5.53A.32.32,0,0,1,481.22,413.81Z" fill="#000000" data-secondary="true"/>
<path d="M486.88,413.9a.39.39,0,0,1-.29-.13l-5.54-5.45a.41.41,0,0,1,0-.58.43.43,0,0,1,.6,0l5.53,5.45a.43.43,0,0,1,0,.6A.46.46,0,0,1,486.88,413.9Z" fill="#000000" data-secondary="true"/>
<path d="M318,449.66l-2.31-3.27a11.66,11.66,0,0,1-2.13-6.72v-7.34a12,12,0,0,0-10.15-11.82V417a1.6,1.6,0,0,0-1.6-1.6h0a1.6,1.6,0,0,0-1.6,1.6h0v3.45a12,12,0,0,0-10.56,11.88v7.6a11.68,11.68,0,0,1-2.48,7.2l-2,2.52Z" fill="#e0e0e0"/>
<path d="M299.84,455a5.24,5.24,0,0,0,5.37-.93,4.88,4.88,0,0,0,1.38-2.08l-9.56-.07A5.18,5.18,0,0,0,299.84,455Z" fill="#e0e0e0"/>
<rect x="331.85" y="336.97" width="115.02" height="1" fill="#000000" data-secondary="true"/>
<rect x="331.85" y="351.19" width="142.72" height="1" fill="#e0e0e0"/>
<rect x="331.85" y="359.56" width="142.72" height="1" fill="#e0e0e0"/>
<rect x="326.92" y="422.69" width="115.02" height="1" fill="#000000" data-secondary="true"/>
<rect x="326.92" y="436.91" width="142.72" height="1" fill="#e0e0e0"/>
<rect x="326.92" y="445.28" width="142.72" height="1" fill="#e0e0e0"/>
<path d="M105.48,182.54h0a2.18,2.18,0,0,1,0,4.36,2.18,2.18,0,0,1,0-4.36Z" fill="#064c31" data-primary="true"/>
<path d="M97.26,182.54h0a2.18,2.18,0,0,1,0,4.36,2.18,2.18,0,0,1,0-4.36Z" fill="#064c31" data-primary="true"/>
<path d="M86.87,184.71A2.17,2.17,0,1,1,89,186.88a2.17,2.17,0,0,1-2.17-2.17Z" fill="#064c31" data-primary="true"/>
<path d="M652.59,415.43a5.17,5.17,0,0,0-1.3-2.78,4.84,4.84,0,0,0-2.56-1.59,4,4,0,0,0-3.1.59,4.19,4.19,0,0,0-1.28,1.43,3.91,3.91,0,0,0-4.27-1.91,4.88,4.88,0,0,0-2.57,1.56,5,5,0,0,0-1.33,2.78,6.25,6.25,0,0,0,.76,3.83,8.92,8.92,0,0,0,3,2.86c2,1.21,4.58,2.71,4.58,2.71s2.21-1.63,4.2-2.82a8.74,8.74,0,0,0,3-2.83A6.28,6.28,0,0,0,652.59,415.43Z" fill="#064c31" data-primary="true"/>
<path d="M632.35,443.91l1.08-7.91h-.79a8.14,8.14,0,0,1-8.13-8.13V406.76a8.14,8.14,0,0,1,8.13-8.13H655.9a8.14,8.14,0,0,1,8.13,8.13v21.11A8.14,8.14,0,0,1,655.9,436H640.55Zm.29-44.28a7.14,7.14,0,0,0-7.13,7.13v21.11a7.14,7.14,0,0,0,7.13,7.13h1.94l-.85,6.18,6.41-6.18H655.9a7.14,7.14,0,0,0,7.13-7.13V406.76a7.14,7.14,0,0,0-7.13-7.13Z" fill="#000000" data-secondary="true"/>
<path d="M114.86,210.34l-9.23-7.27H79.27a7.4,7.4,0,0,1-7.39-7.39V173.75a7.4,7.4,0,0,1,7.39-7.39h36a7.4,7.4,0,0,1,7.39,7.39v21.93a7.4,7.4,0,0,1-7.39,7.39H114Zm-35.59-43a6.4,6.4,0,0,0-6.39,6.39v21.93a6.4,6.4,0,0,0,6.39,6.39H106l7.62,6-.68-6h2.35a6.4,6.4,0,0,0,6.39-6.39V173.75a6.4,6.4,0,0,0-6.39-6.39Z" fill="#000000" data-secondary="true"/>
</svg>